<?xml version="1.0" encoding="utf-8"?>
<!-- Generator: Adobe Illustrator 25.4.1, SVG Export Plug-In . SVG Version: 6.00 Build 0)  -->
<svg version="1.1" id="Layer_1" xmlns="http://www.w3.org/2000/svg" xmlns:xlink="http://www.w3.org/1999/xlink" x="0px" y="0px"
	 viewBox="0 0 114 37" style="enable-background:new 0 0 114 37;" xml:space="preserve">
<style type="text/css">
	.st0{fill:#67CA4C;}
</style>
<g>
	<path class="st0" d="M107.1,3.1V0.2H31.9V6H19.4V0.2H6.8v6.2h12.5v5.8h12.5V6.4h12.5v5.8H31.9V18H19.4v-5.8H6.8v6.2h12.5v5.8h12.5
		v-5.8h12.5v5.8H31.9v6.2h12.5v6.3h0v0.1h62.6v-0.1h0L107.1,3.1L107.1,3.1z M57,6.4h37.6v6H82.1v6.1H69.5v-6.1H57V6.4z M101,30.5
		H50.6V12.4H57v6.1h12.5v6.1h12.5v-6.1h12.5v-6.1h6.4V30.5z"/>
</g>
</svg>
